<svg width="71" height="68" viewBox="0 0 71 68" fill="none" xmlns="http://www.w3.org/2000/svg">
<g clip-path="url(#kkt-clip0)">
<path d="M12.3596 8.38643C13.1956 7.04739 14.3225 6.08836 15.4676 5.61788C15.5766 6.86644 15.2131 8.33214 14.377 9.68927C13.6682 10.8474 12.7413 11.7159 11.778 12.2588C11.6871 12.5121 11.3236 12.8378 11.1418 13.055C10.9055 13.3988 10.6511 13.7245 10.3785 13.9959C10.0695 14.4302 9.77867 14.8826 9.50604 15.3349C9.66962 15.2083 9.85137 15.0816 10.015 14.973C10.7056 14.5387 11.4145 14.2311 12.1051 14.0321C12.8321 13.8149 13.541 13.7426 14.2135 13.7788C14.3225 13.7969 14.3952 13.8873 14.3952 13.9959C14.3952 14.014 14.377 14.0321 14.377 14.0683C14.1408 14.6654 13.7591 15.2806 13.2683 15.8416C12.7958 16.3844 12.2142 16.8911 11.5235 17.3254C10.851 17.7597 10.1422 18.0673 9.45152 18.2663C8.92443 18.4111 8.39735 18.5016 7.90661 18.5197C7.43405 19.6416 6.99784 20.8177 6.56164 22.012C6.52529 22.1025 6.48893 22.193 6.45258 22.3015C6.94332 21.7949 7.4704 21.3968 8.01566 21.0711C8.66998 20.673 9.34246 20.4196 9.9786 20.293C10.0877 20.2568 10.1967 20.3292 10.2149 20.4377C10.2149 20.4558 10.2149 20.492 10.2149 20.5101C10.1422 21.1615 9.94225 21.8491 9.61509 22.5187C9.28794 23.1701 8.85173 23.8034 8.30647 24.4006C7.76121 24.9796 7.16142 25.4682 6.54346 25.8482C6.1436 26.0834 5.72557 26.2824 5.30754 26.4272C5.03491 27.8386 4.85315 29.2681 4.78045 30.7157C5.14396 30.0462 5.58017 29.4491 6.0709 28.9424C6.59799 28.3996 7.1796 27.9834 7.76121 27.6939C7.85209 27.6396 7.97931 27.6758 8.03384 27.7843C8.03384 27.8024 8.03384 27.8205 8.05201 27.8386C8.14289 28.4719 8.12472 29.1957 7.97931 29.9376C7.85209 30.6433 7.59763 31.3852 7.21595 32.091C6.85244 32.7967 6.39806 33.43 5.88915 33.9366V33.9547C5.56199 34.2805 5.19849 34.57 4.85315 34.8233C4.98038 36.4338 5.25301 38.0261 5.63469 39.5642C5.65287 39.5099 5.67104 39.4556 5.67104 39.3833C5.8528 38.6052 6.12543 37.8814 6.48893 37.248C6.85244 36.5966 7.30683 36.0357 7.79756 35.6014C7.87026 35.529 7.99749 35.529 8.07019 35.6195C8.08837 35.6376 8.08837 35.6557 8.10654 35.6738C8.361 36.2709 8.54275 36.9585 8.59727 37.7185C8.6518 38.4423 8.59727 39.2023 8.41552 39.9985C8.23377 40.7766 7.96114 41.5004 7.61581 42.1156C7.37953 42.5318 7.12507 42.9118 6.83427 43.2375C7.36135 44.6127 8.01566 45.9156 8.74268 47.1822C8.7245 47.0737 8.7245 46.9832 8.7245 46.8746C8.68815 46.0784 8.76085 45.3184 8.94261 44.6127C9.12436 43.8889 9.41516 43.2194 9.77867 42.6766C9.8332 42.5861 9.96043 42.568 10.0513 42.6223C10.0695 42.6404 10.0877 42.6585 10.0877 42.6585C10.5057 43.1832 10.851 43.8165 11.1055 44.5223C11.3418 45.2099 11.4872 45.9699 11.5235 46.766C11.5599 47.5622 11.469 48.3222 11.2872 49.0279C11.1782 49.4984 11.0146 49.9146 10.8328 50.3127C11.269 50.8917 11.7234 51.4527 12.2142 51.9955C12.5958 52.4479 12.9957 52.8641 13.4137 53.2803C13.3774 53.2079 13.3592 53.1174 13.3229 53.0269C13.0866 52.2669 12.9775 51.5069 12.9594 50.7831C12.9412 50.0412 13.0502 49.3174 13.2683 48.7022C13.3047 48.5936 13.4137 48.5394 13.5046 48.5755C13.541 48.5936 13.5591 48.5936 13.5773 48.6117C14.1044 49.0098 14.5951 49.5165 15.0132 50.1498C15.4312 50.747 15.7584 51.4346 16.0128 52.1946C16.2491 52.9545 16.3763 53.7145 16.3763 54.4383C16.3945 54.9269 16.34 55.3793 16.2673 55.8136C17.4668 56.7545 18.7391 57.605 20.0841 58.3469C20.0114 58.2383 19.9387 58.1297 19.866 58.0212C19.4298 57.3517 19.1208 56.6459 18.9209 55.9402C18.7209 55.2164 18.6301 54.5107 18.6846 53.8593C18.6846 53.7507 18.7755 53.6603 18.8845 53.6784C18.9027 53.6784 18.939 53.6784 18.9572 53.6964C19.5752 53.9317 20.175 54.2936 20.7384 54.7822C21.2837 55.2707 21.7926 55.8498 22.2288 56.5193C22.665 57.2069 22.974 57.9126 23.1739 58.6002C23.3193 59.0526 23.392 59.505 23.4284 59.9392C24.6279 60.4278 25.8638 60.844 27.1543 61.1697C27.0634 61.0973 26.9725 61.0249 26.8817 60.9526C26.3001 60.4097 25.8093 59.8126 25.4276 59.1792C25.046 58.5459 24.7733 57.8764 24.6461 57.225C24.6279 57.1164 24.7006 57.0259 24.8097 57.0078C24.8279 56.9897 24.846 56.9897 24.8824 57.0078C25.5367 57.0802 26.2274 57.2793 26.8998 57.605C27.536 57.9126 28.1903 58.3469 28.7901 58.8897C29.3717 59.4326 29.8624 60.0297 30.2441 60.6449C30.4804 61.0611 30.6803 61.4773 30.8257 61.8935L30.9166 61.9116C32.7887 62.1468 34.2972 62.6716 35.4786 63.2868C36.66 62.6716 38.1504 62.1468 40.0406 61.9116L40.1315 61.8935C40.2769 61.4773 40.4768 61.0611 40.7131 60.6449C41.0948 60.0297 41.5855 59.4326 42.1671 58.8897C42.7669 58.3469 43.403 57.9126 44.0574 57.605C44.7299 57.2793 45.4205 57.0802 46.0748 57.0078C46.093 56.9897 46.1294 56.9897 46.1475 57.0078C46.2566 57.0259 46.3293 57.1164 46.2929 57.225C46.1657 57.8764 45.9113 58.5459 45.5114 59.1792C45.1479 59.8126 44.6572 60.4097 44.0574 60.9526C43.9847 61.0249 43.8938 61.0973 43.8029 61.1697C45.0752 60.844 46.3293 60.4278 47.5289 59.9392C47.5652 59.505 47.6379 59.0526 47.7651 58.6002C47.9651 57.9126 48.2922 57.2069 48.7284 56.5193C49.1465 55.8498 49.6554 55.2707 50.2006 54.7822C50.7822 54.2936 51.382 53.9317 52 53.6964C52.0182 53.6784 52.0363 53.6784 52.0727 53.6784C52.1817 53.6603 52.2726 53.7507 52.2726 53.8593C52.3271 54.5107 52.2363 55.2164 52.0363 55.9402C51.8364 56.6459 51.5093 57.3517 51.0912 58.0212C51.0185 58.1297 50.9458 58.2383 50.8731 58.3469C52.1999 57.605 53.4904 56.7545 54.6899 55.8136C54.5991 55.3793 54.5627 54.9269 54.5809 54.4383C54.5809 53.7145 54.7081 52.9545 54.9444 52.1946C55.1988 51.4346 55.526 50.747 55.944 50.1498C56.3621 49.5165 56.8528 49.0098 57.3799 48.6117C57.3981 48.5936 57.4162 48.5936 57.4344 48.5755C57.5435 48.5394 57.6525 48.5936 57.6889 48.7022C57.907 49.3174 58.016 50.0412 57.9978 50.7831C57.9797 51.5069 57.8706 52.2669 57.6162 53.0269C57.598 53.1174 57.5616 53.2079 57.5435 53.2803C57.9433 52.8641 58.3432 52.4479 58.743 51.9955C59.2156 51.4527 59.6882 50.8917 60.1244 50.3127C59.9244 49.9146 59.779 49.4984 59.6518 49.0279C59.4882 48.3222 59.3974 47.5622 59.4337 46.766C59.4701 45.9699 59.6155 45.2099 59.8517 44.5223C60.1062 43.8165 60.4515 43.1832 60.8514 42.6585C60.8696 42.6585 60.8877 42.6404 60.9059 42.6223C60.9968 42.568 61.1058 42.5861 61.1785 42.6766C61.542 43.2194 61.8328 43.8889 62.0146 44.6127C62.1964 45.3184 62.2691 46.0784 62.2327 46.8746C62.2327 46.9832 62.2327 47.0737 62.2145 47.1822C62.9415 45.9156 63.5777 44.6127 64.1229 43.2375C63.8321 42.9118 63.5777 42.5318 63.3414 42.1156C62.9961 41.5004 62.7053 40.7766 62.5417 39.9985C62.3599 39.2023 62.3054 38.4423 62.3599 37.7185C62.4145 36.9585 62.578 36.2709 62.8507 35.6738C62.8507 35.6557 62.8688 35.6376 62.887 35.6195C62.9597 35.529 63.0688 35.529 63.1596 35.6014C63.6504 36.0357 64.1048 36.5966 64.4683 37.248C64.8136 37.8814 65.1044 38.6052 65.268 39.3833C65.2862 39.4556 65.3043 39.5099 65.3043 39.5642C65.7042 38.0261 65.9768 36.4338 66.104 34.8233C65.7405 34.57 65.3952 34.2805 65.0681 33.9547V33.9366C64.5591 33.43 64.1048 32.7967 63.7231 32.091C63.3596 31.3852 63.1051 30.6433 62.9779 29.9376C62.8325 29.1957 62.8143 28.4719 62.9052 27.8386C62.9052 27.8205 62.9234 27.8024 62.9234 27.7843C62.9779 27.6758 63.0869 27.6396 63.196 27.6939C63.7776 27.9834 64.3592 28.3996 64.8863 28.9424C65.377 29.4491 65.8132 30.0462 66.1768 30.7157C66.104 29.2681 65.9223 27.8386 65.6315 26.4272C65.2316 26.2824 64.8136 26.0834 64.4137 25.8482C63.7776 25.4682 63.1778 24.9796 62.6326 24.4006C62.0873 23.8034 61.6693 23.1701 61.3421 22.5187C61.015 21.8491 60.815 21.1615 60.7423 20.5101C60.7423 20.492 60.7423 20.4558 60.7423 20.4377C60.7605 20.3292 60.8696 20.2568 60.9604 20.293C61.6147 20.4196 62.2872 20.673 62.9415 21.0711C63.4868 21.3968 64.0139 21.7949 64.5046 22.3015C64.4683 22.193 64.4319 22.1025 64.3956 22.012C63.9594 20.8177 63.5232 19.6596 63.0506 18.5197C62.5417 18.5016 62.0328 18.4111 61.5057 18.2663C60.815 18.0673 60.1062 17.7597 59.4337 17.3254C58.743 16.8911 58.1614 16.3844 57.6889 15.8416C57.1981 15.2806 56.8165 14.6654 56.5802 14.0683C56.562 14.0321 56.562 14.014 56.562 13.9959C56.562 13.8873 56.6347 13.7969 56.7438 13.7788C57.3981 13.7426 58.1251 13.8149 58.8521 14.0321C59.5428 14.2311 60.2516 14.5387 60.9241 14.973C61.1058 15.0816 61.2876 15.2083 61.4512 15.3168C61.1785 14.8826 60.9059 14.4664 60.5969 14.0321C60.2879 13.7245 60.0153 13.3626 59.7609 12.9464C59.67 12.8378 59.5246 12.7292 59.4155 12.6026C58.8884 12.3492 58.3614 12.0054 57.8706 11.5531C57.3254 11.0645 56.8346 10.4855 56.3984 9.79784C55.9804 9.11023 55.6896 8.40452 55.5078 7.69882C55.3079 6.97501 55.2352 6.25121 55.2897 5.59979C55.2897 5.58169 55.3079 5.5636 55.3079 5.5455C55.3442 5.45503 55.4715 5.40074 55.5624 5.43693C56.1803 5.69026 56.7801 6.07026 57.3435 6.57692C57.8161 6.99311 58.2341 7.49977 58.6158 8.06072C58.6885 7.3912 58.8521 6.75787 59.0884 6.21502C59.1065 6.19693 59.1065 6.17883 59.1247 6.16074C59.1974 6.07026 59.3246 6.07026 59.3974 6.14264C59.8881 6.57692 60.3425 7.13787 60.706 7.78929C61.0695 8.42262 61.3421 9.14642 61.5239 9.92451C61.6874 10.7026 61.742 11.4807 61.6874 12.2045C61.6693 12.6569 61.5784 13.1092 61.4693 13.5073C61.5966 13.6883 61.7238 13.8511 61.851 14.0321C61.8874 13.6702 61.9964 13.3445 62.1237 13.055C62.1237 13.0369 62.1418 13.0188 62.1418 13.0007C62.2145 12.9102 62.3418 12.9102 62.4326 12.9826C62.7234 13.2359 63.0142 13.5978 63.2323 13.9959C63.4141 14.3035 63.5595 14.6654 63.6686 15.0454C63.7231 14.7921 63.7958 14.5568 63.8685 14.3035C64.1229 13.5978 64.4683 12.9645 64.8863 12.4578C64.8863 12.4397 64.9045 12.4216 64.9227 12.4216C65.0135 12.3492 65.1408 12.3854 65.1953 12.4759C65.5588 13.0188 65.8496 13.6702 66.0314 14.4121C66.2131 15.0997 66.2858 15.8778 66.2495 16.674C66.2131 17.4701 66.0677 18.2301 65.8314 18.9178C65.686 19.352 65.4861 19.7682 65.268 20.1301C65.4679 20.5825 65.6315 21.0349 65.8132 21.5053C65.8496 21.632 65.9041 21.7768 65.9586 21.9215C66.0859 21.632 66.2495 21.3787 66.4312 21.1434C66.4312 21.1434 66.4494 21.1253 66.4676 21.1073C66.5584 21.053 66.6857 21.0711 66.7402 21.1615C66.9765 21.5053 67.14 21.9034 67.2491 22.3558C67.34 22.6996 67.3945 23.0796 67.3945 23.4596C67.4854 23.2968 67.5944 23.1339 67.7035 22.9891C68.1215 22.3558 68.6123 21.8491 69.1393 21.4511C69.1575 21.433 69.1757 21.433 69.212 21.4149C69.3029 21.3787 69.412 21.433 69.4483 21.5415C69.6664 22.1568 69.7755 22.8806 69.7573 23.6225C69.7391 24.3463 69.6301 25.1063 69.3938 25.8663V25.8843C69.1393 26.6443 68.794 27.332 68.3941 27.9291C68.1397 28.3091 67.8489 28.6529 67.5399 28.9605C67.5944 29.4672 67.649 29.9738 67.6671 30.4986C67.8489 30.2995 68.0306 30.1186 68.2306 29.9919C68.2487 29.9738 68.2669 29.9557 68.2851 29.9557C68.376 29.9195 68.5032 29.9738 68.5395 30.0824C68.6668 30.4624 68.7213 30.8967 68.7213 31.3491C68.7031 31.7833 68.6486 32.2357 68.5032 32.6881C68.6122 32.5795 68.7395 32.4529 68.8667 32.3443C69.4483 31.8557 70.0481 31.4938 70.6661 31.2405C70.6842 31.2405 70.7024 31.2224 70.7388 31.2224C70.8478 31.2224 70.9387 31.3129 70.9387 31.4033C70.9932 32.0729 70.9023 32.7786 70.7024 33.5024C70.5025 34.19 70.1753 34.8957 69.7391 35.5833C69.3211 36.2528 68.8122 36.8319 68.2669 37.3023C67.9216 37.6099 67.5581 37.8633 67.1764 38.0804C67.1219 38.3699 67.0673 38.6776 66.9946 38.9852C67.1946 38.8585 67.3763 38.768 67.5763 38.6956C67.5944 38.6775 67.6126 38.6776 67.649 38.6776C67.758 38.6595 67.8489 38.7499 67.8489 38.8585C67.8852 39.2566 67.8307 39.6909 67.7035 40.1432C67.5944 40.5413 67.3945 40.9756 67.14 41.3737C67.2673 41.3013 67.3945 41.229 67.5399 41.1747C68.2124 40.849 68.9031 40.6318 69.5574 40.5594C69.5755 40.5594 69.5937 40.5594 69.6301 40.5594C69.7209 40.5956 69.7936 40.6861 69.7755 40.7947C69.6482 41.4461 69.3756 42.1156 68.9939 42.7489C68.6304 43.3823 68.1397 43.9794 67.5399 44.5223C66.9401 45.0651 66.304 45.4813 65.6497 45.807C65.2498 46.006 64.8318 46.1508 64.4137 46.2594C64.3047 46.4946 64.1956 46.7118 64.0684 46.9289C64.2683 46.8746 64.4501 46.8384 64.6319 46.8203C64.6682 46.8203 64.6864 46.8203 64.7045 46.8203C64.8136 46.8384 64.8863 46.947 64.8681 47.0556C64.7773 47.4537 64.6318 47.8517 64.3774 48.2498C64.1775 48.6117 63.9048 48.9555 63.5777 49.2632C63.6867 49.227 63.814 49.2089 63.923 49.1908C64.6682 49.046 65.377 49.0279 66.0314 49.1184C66.0495 49.1184 66.0677 49.1365 66.0859 49.1365C66.1949 49.1908 66.2313 49.2993 66.1768 49.4079C65.8859 49.987 65.4679 50.566 64.9227 51.0908C64.3956 51.5974 63.7776 52.0498 63.0506 52.4117C62.3418 52.7917 61.6147 53.045 60.9059 53.1717C60.4515 53.2622 60.0153 53.2984 59.5973 53.2984C59.4337 53.4793 59.2701 53.6422 59.1065 53.8231C59.3065 53.8231 59.4701 53.8231 59.6518 53.8593C59.67 53.8593 59.6882 53.8593 59.7063 53.8774C59.7972 53.9136 59.8336 54.0403 59.7972 54.1307C59.6155 54.4926 59.361 54.8545 59.0157 55.1621C58.7794 55.3974 58.5249 55.5964 58.216 55.7774C58.325 55.7955 58.4159 55.7955 58.5068 55.7955C59.2519 55.8498 59.9608 56.0126 60.5606 56.284C60.5787 56.3021 60.5969 56.3021 60.6151 56.3202C60.6878 56.3926 60.706 56.5193 60.6333 56.5917C60.1971 57.0802 59.6336 57.5326 58.9611 57.8945C58.3432 58.2564 57.6162 58.5278 56.8346 58.7088C56.0349 58.8716 55.2715 58.9259 54.5445 58.8716C54.0902 58.8535 53.6539 58.7631 53.2541 58.6545C53.0178 58.8173 52.7997 58.9621 52.5634 59.0888C52.7088 59.1431 52.8724 59.1973 53.0178 59.2516C53.036 59.2697 53.0542 59.2697 53.0723 59.2878C53.145 59.3602 53.145 59.4869 53.0905 59.5592C52.8179 59.8669 52.4725 60.1383 52.0727 60.3554C51.6728 60.5726 51.2366 60.7535 50.7641 60.844C50.7095 60.8621 50.655 60.8802 50.6005 60.8802C50.6914 60.9164 50.7822 60.9345 50.8549 60.9707C51.582 61.224 52.2181 61.5497 52.727 61.9659C52.7452 61.984 52.7634 62.0021 52.7634 62.0202C52.8179 62.1106 52.7997 62.2192 52.7088 62.2916C52.1636 62.6535 51.5093 62.943 50.7641 63.124C50.0734 63.2868 49.2919 63.3773 48.4921 63.3411C47.6924 63.3049 46.9291 63.1602 46.2384 62.9249C45.8204 62.7802 45.4205 62.5992 45.057 62.3821C43.4939 62.8344 41.8763 63.1783 40.2224 63.3773C38.9501 63.5402 37.8777 63.8478 36.9872 64.2278C38.3503 65.2592 39.0591 66.3087 39.3136 66.6887C39.3318 66.7249 39.2772 66.6887 39.3136 66.7068C39.6044 66.9963 39.6044 67.4849 39.3136 67.7744C39.0228 68.0639 38.5502 68.0639 38.2413 67.7744C38.1867 67.702 38.1322 67.6296 38.0595 67.5211C37.805 67.1411 37.0417 66.0011 35.4786 65.0059C33.8973 66.0011 33.1522 67.1411 32.8977 67.5211C32.825 67.6296 32.7705 67.702 32.6978 67.7744C32.407 68.0639 31.9344 68.0639 31.6436 67.7744C31.3528 67.4849 31.3528 66.9963 31.6436 66.7068C31.6618 66.6887 31.6254 66.7249 31.6436 66.6887C31.8981 66.3087 32.6069 65.2592 33.9701 64.2278C33.0795 63.8478 32.0071 63.5402 30.7348 63.3773C29.0809 63.1783 27.4633 62.8344 25.9002 62.3821C25.5367 62.5992 25.1368 62.7802 24.7188 62.9249C24.0281 63.1602 23.2648 63.3049 22.4651 63.3411C21.6653 63.3773 20.8838 63.2868 20.1931 63.124C19.448 62.943 18.7936 62.6535 18.2484 62.2916C18.1575 62.2192 18.1212 62.1106 18.1939 62.0202C18.1939 62.0021 18.212 61.984 18.2302 61.9659C18.7391 61.5497 19.3753 61.224 20.0841 60.9707C20.175 60.9345 20.2658 60.9164 20.3567 60.8802C20.3022 60.8802 20.2477 60.8621 20.1931 60.844C19.7206 60.7535 19.2662 60.5726 18.8845 60.3554C18.4847 60.1383 18.1393 59.8669 17.8667 59.5592C17.794 59.4869 17.8122 59.3602 17.8849 59.2878C17.903 59.2697 17.9212 59.2697 17.9394 59.2516C18.0848 59.1973 18.2302 59.1431 18.3938 59.0888C18.1575 58.9621 17.9212 58.8173 17.7031 58.6545C17.3033 58.7631 16.8671 58.8535 16.4127 58.8716C15.6857 58.9259 14.9223 58.8716 14.1226 58.7088C13.341 58.5278 12.614 58.2564 11.9779 57.8945C11.3236 57.5326 10.7601 57.0802 10.3239 56.5917C10.2512 56.5193 10.2512 56.3926 10.3421 56.3202C10.3603 56.3021 10.3785 56.3021 10.3966 56.284C10.9964 56.0126 11.7053 55.8498 12.4504 55.7955C12.5413 55.7955 12.6322 55.7955 12.7231 55.7774C12.4323 55.5964 12.1596 55.3974 11.9415 55.1621H11.9234C11.5962 54.8545 11.3418 54.4926 11.16 54.1307C11.1055 54.0403 11.16 53.9136 11.2509 53.8774C11.269 53.8593 11.2872 53.8593 11.3054 53.8593C11.469 53.8231 11.6507 53.8231 11.8325 53.8231C11.6689 53.6422 11.5235 53.4793 11.3599 53.2984C10.9419 53.2984 10.5057 53.2622 10.0513 53.1717C9.34246 53.045 8.61545 52.7917 7.88844 52.4117C7.1796 52.0498 6.56164 51.5974 6.03455 51.0908C5.48929 50.566 5.05308 49.987 4.76228 49.4079C4.72593 49.2993 4.76228 49.1908 4.85315 49.1365C4.87133 49.1365 4.8895 49.1184 4.90768 49.1184C5.56199 49.0279 6.28901 49.046 7.03419 49.1908C7.14325 49.2089 7.27047 49.227 7.37953 49.2632C7.05237 48.9555 6.77974 48.6117 6.56164 48.2498C6.32536 47.8517 6.16178 47.4537 6.08908 47.0556C6.0709 46.947 6.1436 46.8384 6.23448 46.8203C6.27083 46.8203 6.28901 46.8203 6.30718 46.8203C6.50711 46.8384 6.68886 46.8746 6.88879 46.9289C6.76157 46.7118 6.65251 46.4946 6.54346 46.2594C6.12543 46.1508 5.7074 46.006 5.30754 45.807C4.65323 45.4813 3.99891 45.0651 3.4173 44.5223C2.81752 43.9794 2.32678 43.3823 1.96328 42.7489C1.56342 42.1156 1.30896 41.4461 1.18174 40.7947C1.16356 40.6861 1.21809 40.5956 1.32714 40.5594C1.36349 40.5594 1.38166 40.5594 1.39984 40.5594C2.05415 40.6318 2.74481 40.849 3.4173 41.1747C3.54453 41.229 3.67176 41.3013 3.81716 41.3737C3.56271 40.9756 3.36278 40.5413 3.25372 40.1432C3.1265 39.6909 3.07197 39.2566 3.09015 38.8585C3.10832 38.7499 3.1992 38.6595 3.30825 38.6776C3.32643 38.6776 3.36278 38.6775 3.38095 38.6956C3.56271 38.768 3.76263 38.8585 3.96256 38.9852C3.88986 38.6776 3.83534 38.3699 3.76263 38.0804C3.39913 37.8633 3.03562 37.6099 2.69029 37.3023C2.14503 36.8319 1.63612 36.2528 1.19991 35.5833C0.763703 34.8957 0.454722 34.19 0.254793 33.5024C0.0548643 32.7786 -0.0360124 32.0729 0.0185136 31.4033C0.0185136 31.3129 0.10939 31.2224 0.218442 31.2224C0.236618 31.2224 0.272968 31.2405 0.291144 31.2405C0.909105 31.4938 1.50889 31.8557 2.07233 32.3443C2.19955 32.4529 2.32678 32.5795 2.45401 32.6881C2.30861 32.2357 2.23591 31.7833 2.23591 31.3491C2.23591 30.8967 2.29043 30.4624 2.41766 30.0824C2.45401 29.9738 2.56306 29.9195 2.67211 29.9557C2.69029 29.9557 2.70846 29.9738 2.72664 29.9919C2.92657 30.1186 3.10832 30.2995 3.2719 30.4986C3.30825 29.9738 3.3446 29.4672 3.39913 28.9605C3.10832 28.6529 2.81752 28.3091 2.56306 27.9291C2.14503 27.332 1.81787 26.6443 1.56342 25.8843V25.8663C1.32714 25.1063 1.19991 24.3463 1.19991 23.6225C1.18174 22.8806 1.29079 22.1568 1.49072 21.5415C1.52707 21.433 1.65429 21.3787 1.74517 21.4149C1.76335 21.433 1.78152 21.433 1.7997 21.4511C2.34496 21.8491 2.83569 22.3558 3.25372 22.9891C3.36278 23.1339 3.45365 23.2968 3.56271 23.4596C3.56271 23.0796 3.61723 22.6996 3.68993 22.3558C3.81716 21.9034 3.98074 21.5053 4.21702 21.1615C4.27154 21.0711 4.39877 21.053 4.48965 21.1073C4.50782 21.1253 4.50782 21.1434 4.526 21.1434C4.70775 21.3787 4.87133 21.632 4.99856 21.9215C5.05308 21.7768 5.08943 21.632 5.14396 21.5053C5.30754 21.0349 5.48929 20.5825 5.68922 20.1301C5.47112 19.7682 5.27119 19.352 5.12578 18.9178C4.8895 18.2301 4.72593 17.4701 4.68958 16.674C4.6714 15.8778 4.7441 15.0997 4.92586 14.4121C5.10761 13.6702 5.39841 13.0188 5.76192 12.4759C5.81645 12.3854 5.94367 12.3492 6.03455 12.4216C6.05273 12.4216 6.05273 12.4397 6.0709 12.4578C6.48893 12.9645 6.83427 13.5978 7.07055 14.3035C7.16142 14.5568 7.23412 14.7921 7.28865 15.0454C7.3977 14.6654 7.5431 14.3035 7.72486 13.9959C7.94296 13.5978 8.21559 13.2359 8.52457 12.9826C8.61545 12.9102 8.7245 12.9102 8.7972 13.0007C8.81538 13.0188 8.83355 13.0369 8.83355 13.055C8.96078 13.3445 9.05166 13.6702 9.10618 14.0321C9.23341 13.8511 9.36064 13.6883 9.48787 13.5073C9.36064 13.1092 9.28794 12.6569 9.25159 12.2045C9.21524 11.4807 9.26976 10.7026 9.43334 9.92451C9.61509 9.14642 9.88772 8.42262 10.2331 7.78929C10.6147 7.13787 11.0509 6.57692 11.5599 6.14264C11.6326 6.07026 11.7598 6.07026 11.8325 6.16074C11.8507 6.17883 11.8507 6.19693 11.8688 6.21502C12.1233 6.81216 12.305 7.49977 12.3414 8.25976C12.3596 8.29595 12.3596 8.33214 12.3596 8.38643ZM59.1611 12.0235C59.1792 12.0054 59.1974 11.9692 59.2338 11.9512C59.052 11.4988 58.8884 11.0283 58.7794 10.5216C58.6522 9.92451 58.5795 9.32737 58.5795 8.74833C58.5431 8.67595 58.5068 8.60357 58.4704 8.54928C58.0705 7.89786 57.598 7.33691 57.0891 6.86644C56.6347 6.46835 56.1621 6.14264 55.6714 5.90741C55.6532 6.45026 55.7259 7.0293 55.8713 7.60834C56.0531 8.25976 56.3439 8.94738 56.7438 9.5988C57.1436 10.2502 57.6162 10.8112 58.1251 11.2635C58.4522 11.5712 58.8157 11.8245 59.1611 12.0235ZM0.291144 31.2405C0.363845 31.2767 0.400196 31.3491 0.400196 31.4395L0.291144 31.2405Z" fill="#163A6B"/>
<path fill-rule="evenodd" clip-rule="evenodd" d="M55.4896 5.61789C55.3805 6.86645 55.744 8.33215 56.5801 9.68928C57.4162 11.0464 58.5612 12.0416 59.7244 12.5121C59.8153 11.2635 59.47 9.79785 58.6339 8.44072C57.7978 7.08359 56.6528 6.08836 55.4896 5.61789Z" fill="#163A6B"/>
<path fill-rule="evenodd" clip-rule="evenodd" d="M35.4784 12.4216C40.9674 12.4216 47.2561 12.9645 52.5269 14.6292C52.8904 14.7378 53.1085 15.0635 53.1085 15.4254V32.1453C53.1085 34.6786 53.1449 37.2481 52.6723 39.7452C52.0544 42.9842 50.6549 45.6261 48.2921 47.9603C44.966 51.2717 40.1313 53.4974 35.7692 55.0717C35.5693 55.1441 35.3876 55.1441 35.1876 55.0717C30.8255 53.4974 25.9909 51.2717 22.6466 47.9603C20.302 45.6261 18.9025 42.9842 18.2846 39.7452C17.812 37.2481 17.8302 34.6786 17.8302 32.1453V15.4254C17.8302 15.0635 18.0665 14.7378 18.43 14.6292C23.6826 12.9645 29.9713 12.4216 35.4784 12.4216Z" fill="#163A6B"/>
<path d="M35.4784 11.6797C38.4592 11.6797 41.6762 11.8245 44.8751 12.2407C47.6014 12.6026 50.2913 13.1274 52.7632 13.9054C53.0903 14.014 53.3629 14.2131 53.5629 14.4845C53.7628 14.7559 53.8718 15.0816 53.8718 15.4254V32.1453V32.5434C53.8718 34.9862 53.8718 37.4471 53.3993 39.8719C53.0903 41.5728 52.5632 43.1109 51.7999 44.5404C51.0365 45.9699 50.055 47.2727 48.8373 48.5032C47.1106 50.2041 45.0023 51.6336 42.7667 52.8279C40.5675 54.0041 38.2411 54.9812 36.0237 55.7774C35.8419 55.8498 35.6602 55.886 35.4784 55.886C35.2967 55.886 35.1149 55.8498 34.9331 55.7774C32.7158 54.9812 30.3893 54.0041 28.1719 52.8279C25.9545 51.6336 23.8462 50.2041 22.1195 48.5032C20.8836 47.2727 19.9021 45.9699 19.157 44.5404C18.3936 43.1109 17.8665 41.5728 17.5393 39.8719C17.085 37.4471 17.085 34.9862 17.085 32.5434V32.1453V15.4254C17.085 15.0816 17.194 14.7559 17.3939 14.4845C17.5939 14.2131 17.8665 14.014 18.1937 13.9054C20.6655 13.1454 23.3373 12.6026 26.0818 12.2407C29.2624 11.8245 32.4977 11.6797 35.4784 11.6797ZM44.6751 13.7245C41.5853 13.3264 38.4228 13.1635 35.4784 13.1635C32.534 13.1635 29.3715 13.3264 26.2817 13.7245H26.2635C23.6463 14.0683 21.0472 14.5931 18.648 15.335C18.6299 15.353 18.6117 15.353 18.6117 15.3711C18.5935 15.3892 18.5935 15.4073 18.5935 15.4254V32.1453V32.5434C18.5935 34.9138 18.5935 37.3024 19.0297 39.6004C19.3205 41.1566 19.7931 42.5499 20.4838 43.8528C21.1744 45.1375 22.065 46.3137 23.1737 47.4356C24.7913 49.028 26.7724 50.367 28.8989 51.507C31.0254 52.6651 33.2974 53.5879 35.4421 54.366L35.4784 54.3841L35.5148 54.366C37.6594 53.5879 39.9314 52.6651 42.0579 51.507C44.1662 50.367 46.1655 49.028 47.7649 47.4356C48.8918 46.3137 49.7824 45.1375 50.4731 43.8528C51.1637 42.5499 51.6363 41.1566 51.9271 39.6004C52.3633 37.3024 52.3633 34.9138 52.3633 32.5434V32.1453V15.4254C52.3633 15.4073 52.3633 15.3892 52.3451 15.3711C52.3451 15.353 52.3269 15.353 52.3088 15.335C49.9096 14.5931 47.3106 14.0683 44.6751 13.7245Z" fill="#163A6B"/>
<path fill-rule="evenodd" clip-rule="evenodd" d="M35.4786 15.4254V32.1452H18.6846V15.4254C22.9012 14.0864 28.8628 13.254 35.4786 13.254V15.4254Z" fill="#CD1C2A"/>
<path d="M21.1748 17.5425H22.3744V19.3882H23.1559L24.6099 17.5425H25.9186L24.101 19.732L25.7913 21.9577V22.2292H24.5736L23.1559 20.2568H22.3744V22.2292H21.1748V17.5425Z" fill="white"/>
<path d="M24.5732 21.2339H25.2457L25.791 21.9578V23.0977H26.5725L28.0084 21.2339H29.3352L27.5176 23.4415L29.4079 25.9387H27.9902L26.5725 23.9482H25.791V25.9387H24.5732V21.2339Z" fill="white"/>
<path d="M29.8805 25.9386H27.9902V24.9434H32.9885V25.9386H31.0982V29.63H29.8805V25.9386Z" fill="white"/>
<path fill-rule="evenodd" clip-rule="evenodd" d="M52.2725 15.4254V32.1452H35.4785V15.4254V13.254C42.0762 13.254 48.0558 14.0864 52.2725 15.4254Z" fill="white"/>
<path fill-rule="evenodd" clip-rule="evenodd" d="M40.2768 28.6891L39.2772 27.6939C39.3862 27.4586 39.9496 26.952 40.1496 26.771L44.6934 31.2405L44.6752 32.1452H46.0202L46.3655 31.1681C46.7472 30.0281 46.7836 30.1548 46.2565 29.1234C45.9475 28.5262 45.6567 27.9291 45.3477 27.332C45.166 26.952 44.548 25.8301 44.4571 25.5405C44.3844 25.2148 44.439 23.3329 44.439 22.8625C44.548 22.6272 44.6571 22.6815 44.8206 22.4463C44.9842 22.2291 45.0387 22.1025 45.0933 21.7949L45.1296 21.5596L47.3652 20.9806C47.1834 21.5234 46.8017 22.2653 46.5291 22.772C46.1656 23.4777 46.8926 24.2196 47.6378 24.1834C48.3648 24.1472 48.9283 23.4415 48.5648 22.6996C48.2739 22.0844 47.9468 21.4692 47.7287 20.8901L50.0551 20.4196C49.9643 20.7273 49.7461 21.0892 49.6189 21.3968C49.5099 21.5958 49.2009 22.1568 49.1645 22.3196C48.8919 23.3872 50.7821 24.1291 51.3456 22.8625C51.6364 22.193 50.7094 21.0892 50.2732 19.9311L48.9646 20.1844C48.9646 18.7368 48.9101 19.2616 49.3099 18.8997C49.4008 18.8273 49.5099 18.7006 49.5826 18.5558C49.8007 18.1035 49.6007 17.814 49.4553 17.4882C48.3466 17.4159 47.8923 17.3797 47.4561 18.2482C47.2925 18.5739 46.62 19.8587 46.4382 20.0577L43.6938 20.112L44.6752 21.0711C44.8752 21.2339 44.9115 21.252 45.0206 21.4511L42.5487 21.433C42.2761 21.1253 42.5487 20.6006 41.8217 20.2749C41.3673 20.0577 40.6585 20.1482 40.095 20.1482C40.4404 19.2073 41.5854 19.5873 42.1489 19.4787C42.476 19.4063 42.4215 19.2073 42.4578 18.8454C42.7123 18.8092 42.9304 18.8635 43.1667 18.8092C43.4575 18.7368 43.4575 18.6282 43.5665 18.4654C43.1303 18.4111 42.9122 18.4111 42.6759 18.1216C42.4215 17.832 42.4578 17.434 42.4578 16.9997C42.476 16.0587 43.0395 15.7873 43.8937 16.0406C43.8392 15.2083 43.0031 15.4073 41.8581 15.4073C40.9856 15.4254 40.4949 15.8235 40.4767 16.674C40.4404 17.7416 40.3677 18.0311 39.3499 18.1939C37.5323 18.4835 39.3499 21.433 37.0416 21.4692C35.842 21.4692 35.5512 22.0663 35.4785 22.8625V28.671C36.5327 28.7434 39.4407 28.671 40.2768 28.6891C40.4222 29.7386 39.9315 29.9557 39.4044 30.3719C39.1136 30.5891 38.95 30.7519 38.6774 30.951L37.1325 32.1452H43.7665L40.2768 28.6891ZM47.6015 21.6863L48.2012 23.0434L46.9108 23.0253L47.6015 21.6863ZM50.3096 21.053L50.9275 22.392H49.6371L50.3096 21.053ZM47.656 20.4196C47.7469 20.1844 47.8559 19.9311 47.965 19.6958C48.2921 18.8635 48.1285 19.0444 48.4012 19.0806C48.5284 19.2797 48.4739 20.0035 48.4375 20.293L47.656 20.4196ZM40.7494 24.9796V24.7444V23.6767C40.7494 23.1701 40.9129 22.8625 41.4218 22.8082V24.5091C41.0947 24.6539 40.9493 24.7986 40.7494 24.9796ZM38.7319 25.2872C39.3862 25.3053 39.7497 25.631 39.8042 26.2643H38.841L38.8046 27.2234C38.1139 27.2596 37.8231 26.7529 37.8231 26.0653V23.6767C37.8231 23.3329 38.8773 21.813 39.1499 21.4872L41.0583 21.4511C40.9311 21.7949 40.7675 21.7949 40.295 22.2653C40.0223 22.5368 39.7861 22.772 39.5134 23.0434C39.0954 23.4777 39.1681 23.3148 39.0045 24.0386C38.9137 24.4367 38.7682 24.9072 38.7319 25.2872Z" fill="#163A6B"/>
<path fill-rule="evenodd" clip-rule="evenodd" d="M42.1855 16.674H43.9486L43.9122 16.8368L44.0031 17.3254H42.1855V16.674Z" fill="#163A6B"/>
<path fill-rule="evenodd" clip-rule="evenodd" d="M35.4788 32.1453H18.6847C18.6847 40.5052 18.4485 48.1232 35.4788 54.2936V49.7156V32.1453Z" fill="white"/>
<path fill-rule="evenodd" clip-rule="evenodd" d="M26.118 36.7776L26.1543 43.6899L27.3175 43.3642V40.8309C27.3721 40.2519 27.5538 40.1795 27.9355 39.9442C28.5171 40.6499 29.5167 40.4328 29.9711 39.908C30.5527 40.469 31.6978 40.6138 32.5884 39.8176L31.8432 38.9852C32.7156 39.2204 33.9515 39.1481 34.3332 38.0624L33.2063 37.5376C34.0788 37.5376 34.8785 37.3928 35.4783 37.1214V35.6919C33.6425 35.6738 30.6073 35.6376 30.0075 35.8909C28.5353 36.5243 28.4262 38.1166 27.3175 38.2976V36.7776C28.3172 36.1986 28.0082 34.5338 26.7541 34.5338C25.3728 34.5338 25.2637 36.1986 26.118 36.7776Z" fill="#163A6B"/>
<path fill-rule="evenodd" clip-rule="evenodd" d="M29.3893 41.5366C29.571 41.5366 29.7164 41.6814 29.7164 41.8623C29.7164 42.0433 29.571 42.1699 29.3893 42.1699C29.2257 42.1699 29.0803 42.0433 29.0803 41.8623C29.0803 41.6814 29.2257 41.5366 29.3893 41.5366ZM23.6095 47.7251C23.8821 47.9603 24.1548 48.2137 24.4456 48.4489L25.2635 47.888C24.2275 46.9289 25.009 46.5127 26.1359 46.2956L26.1904 47.4356L27.3536 47.0013L27.4082 46.3137C27.9716 46.368 28.535 46.6032 28.7713 47.128C28.844 47.9603 26.5721 48.3765 25.3907 49.1908C25.9905 49.6613 26.663 50.0956 27.39 50.5479C27.39 50.4213 27.39 50.2584 27.39 50.0775C28.0261 50.186 28.2806 50.6203 28.2442 51.0365C28.3351 51.0908 28.4441 51.1632 28.535 51.2175C29.2257 50.6203 28.7713 49.5708 28.2442 49.1546C28.8804 48.9013 29.7528 48.3765 29.9345 47.6708C30.2799 46.3499 29.6982 45.807 28.9349 45.3727C29.8982 44.7213 30.8796 44.3775 30.8069 42.8937C30.7524 41.5909 29.7164 40.7042 28.4078 41.1747C27.9534 42.4956 28.7531 42.6766 29.5347 43.3099C28.3169 44.4318 26.9538 44.5404 25.3543 45.1375C23.7186 45.7708 23.246 46.8204 23.6095 47.7251Z" fill="#163A6B"/>
<path fill-rule="evenodd" clip-rule="evenodd" d="M20.302 37.5195L19.1569 38.0262C19.5204 39.0576 20.6291 39.3109 21.4834 39.1119L20.9017 39.7995C21.6106 40.5414 22.6466 40.5233 23.5372 39.9081C25.0639 40.3423 25.5364 39.51 25.5546 38.0805C24.9003 37.1576 24.3732 36.0719 23.1918 35.7824C22.7193 35.6738 20.2474 35.6557 18.7207 35.71C18.7389 36.1986 18.7571 36.7052 18.7934 37.1938C19.266 37.4109 19.8112 37.5195 20.302 37.5195Z" fill="#163A6B"/>
<path fill-rule="evenodd" clip-rule="evenodd" d="M24.1191 41.5366C24.3009 41.5366 24.4281 41.6814 24.4281 41.8623C24.4281 42.0433 24.3009 42.1699 24.1191 42.1699C23.9374 42.1699 23.792 42.0433 23.792 41.8623C23.792 41.6814 23.9374 41.5366 24.1191 41.5366ZM23.6102 44.7213L24.8461 44.088L23.9737 43.3461C24.7007 42.7309 25.6277 42.4775 25.1006 41.1747C22.9014 40.2881 21.8472 43.708 23.6102 44.7213Z" fill="#163A6B"/>
<path fill-rule="evenodd" clip-rule="evenodd" d="M35.4785 32.1453H52.2725C52.2725 40.5052 52.5088 48.1232 35.4785 54.2936V49.7156V32.1453Z" fill="#CD1C2A"/>
<path fill-rule="evenodd" clip-rule="evenodd" d="M42.3662 41.8442C42.3662 43.129 41.2212 44.1604 39.8398 44.1604C38.4403 44.1604 37.3135 43.129 37.3135 41.8442H42.3662Z" fill="white"/>
<path d="M37.6952 41.9166C37.6588 42.0251 37.5498 42.0613 37.4407 42.0251C37.3499 41.9889 37.3135 41.8804 37.3499 41.7718L39.6581 36.1985C39.6945 36.1081 39.8035 36.0538 39.9126 36.09C39.9489 36.1262 39.9853 36.1624 40.0035 36.1985L42.3117 41.7718C42.3663 41.8804 42.3117 41.9889 42.2209 42.0251C42.13 42.0613 42.0209 42.0251 41.9664 41.9166L39.8399 36.7595L37.6952 41.9166Z" fill="white"/>
<path d="M38.8043 34.9319C38.9861 34.7509 39.2769 34.7328 39.4768 34.9138C39.6585 35.0947 39.6585 35.3843 39.4768 35.5833C39.4223 35.6376 39.4041 35.71 39.4041 35.7643C39.4041 35.7824 39.4041 35.8005 39.4223 35.8186C39.4223 35.8366 39.4404 35.8547 39.4586 35.8547C39.495 35.8728 39.5677 35.8728 39.6585 35.8366L39.8403 35.7462C39.9493 35.6919 40.0584 35.6195 40.2038 35.529C41.1489 34.95 42.5302 34.0814 44.057 35.0947C44.1297 35.149 44.1842 35.2033 44.2205 35.2757C44.7476 36.289 44.2205 37.3928 44.2024 37.3928C44.0933 37.6281 43.8207 37.7185 43.5844 37.5919C43.4754 37.5376 43.3845 37.4471 43.3481 37.3385C43.3481 37.3204 42.7302 35.4566 40.2583 36.5785C40.1675 36.6328 40.0948 36.669 40.0039 36.7052C39.6585 36.85 39.3314 36.8138 39.0769 36.7052C38.8952 36.6147 38.7316 36.4881 38.6407 36.3252C38.5317 36.1805 38.4771 35.9814 38.459 35.8005C38.4408 35.5109 38.5498 35.1852 38.8043 34.9319ZM43.4208 35.8005C43.3481 35.7643 43.2754 35.7281 43.2027 35.6919C43.2936 35.7643 43.3845 35.8366 43.4572 35.909L43.4208 35.8005Z" fill="white"/>
<path fill-rule="evenodd" clip-rule="evenodd" d="M45.2197 41.8442C45.2197 43.129 46.3466 44.1604 47.7461 44.1604C49.1456 44.1604 50.2725 43.129 50.2725 41.8442H45.2197Z" fill="white"/>
<path d="M50.2365 41.7718C50.2729 41.8804 50.2365 41.9889 50.1275 42.0251C50.0366 42.0613 49.9276 42.0251 49.8912 41.9166L47.7465 36.7595L45.6018 41.9166C45.5655 42.0251 45.4564 42.0613 45.3656 42.0251C45.2747 41.9889 45.2202 41.8804 45.2565 41.7718L47.5829 36.1985C47.6011 36.1624 47.6375 36.1262 47.6738 36.09C47.7647 36.0538 47.8919 36.1081 47.9283 36.1985L50.2365 41.7718Z" fill="white"/>
<path d="M48.0917 35.5833C47.9281 35.3843 47.9281 35.0947 48.1099 34.9138C48.2916 34.7328 48.6006 34.7509 48.7823 34.9319C49.0368 35.1852 49.1277 35.5109 49.1277 35.8005C49.1095 35.9814 49.055 36.1805 48.9459 36.3252C48.8369 36.4881 48.6915 36.6147 48.5097 36.7052C48.2553 36.8138 47.9281 36.85 47.5828 36.7052C47.4919 36.669 47.401 36.6328 47.3283 36.5785C44.8565 35.4566 44.2385 37.3204 44.2385 37.3385C44.2022 37.4471 44.1113 37.5376 44.0022 37.5919C43.766 37.7185 43.4933 37.6281 43.3661 37.3928C43.3661 37.3928 42.839 36.289 43.3661 35.2757C43.4024 35.2033 43.457 35.149 43.5297 35.0947C45.0382 34.0814 46.4377 34.95 47.3828 35.529C47.5101 35.6195 47.6373 35.6919 47.7464 35.7462L47.9281 35.8366C48.019 35.8728 48.0917 35.8728 48.128 35.8547C48.1462 35.8547 48.1462 35.8366 48.1644 35.8186C48.1826 35.8005 48.1826 35.7824 48.1826 35.7643C48.1826 35.71 48.1644 35.6376 48.0917 35.5833ZM44.3839 35.6919C44.3112 35.7281 44.2385 35.7643 44.1476 35.8005L44.1113 35.909C44.2022 35.8366 44.293 35.7643 44.3839 35.6919Z" fill="white"/>
<path fill-rule="evenodd" clip-rule="evenodd" d="M43.7837 36.5243C44.2563 36.5243 44.6198 36.9043 44.6198 37.3566C44.6198 37.809 44.2563 38.189 43.7837 38.189C43.3293 38.189 42.9658 37.809 42.9658 37.3566C42.9658 36.9043 43.3293 36.5243 43.7837 36.5243Z" fill="white"/>
<path d="M43.7844 36.3252C44.0752 36.3252 44.3297 36.4519 44.5114 36.6328C44.7114 36.8138 44.8204 37.0671 44.8204 37.3566C44.8204 37.6462 44.7114 37.8995 44.5114 38.0804C44.3297 38.2614 44.0752 38.3881 43.7844 38.3881C43.5118 38.3881 43.2573 38.2614 43.0574 38.0804C42.8757 37.8995 42.7666 37.6462 42.7666 37.3566C42.7666 37.0671 42.8757 36.8138 43.0574 36.6328C43.2573 36.4519 43.5118 36.3252 43.7844 36.3252ZM44.2388 36.9043C44.1297 36.7957 43.9662 36.7233 43.7844 36.7233C43.6208 36.7233 43.4573 36.7957 43.3482 36.9043C43.221 37.0128 43.1483 37.1757 43.1483 37.3566C43.1483 37.5376 43.221 37.6824 43.3482 37.809C43.4573 37.9176 43.6208 37.99 43.7844 37.99C43.9662 37.99 44.1297 37.9176 44.2388 37.809C44.366 37.6824 44.4206 37.5376 44.4206 37.3566C44.4206 37.1757 44.366 37.0128 44.2388 36.9043Z" fill="white"/>
<path fill-rule="evenodd" clip-rule="evenodd" d="M43.3293 44.0699C43.3293 45.5718 42.4024 46.8746 41.0938 47.4356V47.8699H43.7837H46.4918V47.4356C45.165 46.8746 44.2563 45.5718 44.2563 44.0699V38.0443C44.1108 38.1347 43.9654 38.189 43.7837 38.189C43.6201 38.189 43.4565 38.1347 43.3293 38.0443V44.0699Z" fill="white"/>
<path fill-rule="evenodd" clip-rule="evenodd" d="M40.0586 36.1624C41.9852 35.2757 43.003 35.9995 43.4574 36.5966C43.5119 36.5786 43.5664 36.5605 43.621 36.5424C43.5664 36.2347 43.5846 35.8547 43.7845 35.4747C42.3123 34.4976 40.8583 35.71 40.0586 36.1624Z" fill="white"/>
<path d="M40.84 35.7824C41.3125 35.6557 41.6942 35.6376 42.0395 35.6738C42.7484 35.7643 43.2028 36.1443 43.4936 36.4881H43.5299C43.5118 36.3252 43.5118 36.1443 43.5299 35.9633C43.5663 35.8185 43.6026 35.6557 43.6753 35.5109C42.6575 34.8776 41.6215 35.33 40.84 35.7824ZM42.0214 35.8547C41.5125 35.7824 40.8763 35.8728 40.0948 36.2347L40.0039 36.09C40.1311 36.0357 40.2584 35.9452 40.4038 35.8547C41.258 35.33 42.5303 34.5338 43.8389 35.4024L43.8934 35.4566L43.8571 35.529C43.7844 35.6738 43.7299 35.8366 43.7117 35.9995C43.6753 36.1804 43.6753 36.3614 43.6935 36.5423L43.7117 36.6147L43.5663 36.6509L43.4391 36.7052L43.3845 36.6509C43.1301 36.3071 42.6939 35.9271 42.0214 35.8547Z" fill="white"/>
<path fill-rule="evenodd" clip-rule="evenodd" d="M43.7838 35.4747C43.5839 35.8547 43.5657 36.2347 43.6203 36.5424C43.6748 36.5243 43.7293 36.5243 43.7838 36.5243C43.8565 36.5243 43.9111 36.5243 43.9656 36.5424C44.0201 36.5605 44.0746 36.5786 44.1292 36.5966C44.5836 35.9995 45.5832 35.2757 47.528 36.1624C46.7101 35.71 45.2742 34.4976 43.7838 35.4747Z" fill="white"/>
<path d="M44.1477 35.8005C44.1295 35.8366 44.1295 35.8909 44.1113 35.9271C44.2204 35.8366 44.3295 35.7462 44.4567 35.6738C44.3476 35.71 44.2568 35.7462 44.1477 35.8005ZM43.1662 35.909C43.1844 35.6919 43.2571 35.4747 43.3843 35.2576L43.4389 35.149L43.5297 35.0947C45.0383 34.0814 46.4378 34.95 47.3829 35.529C47.5283 35.6195 47.6555 35.6919 47.7464 35.7462L47.3284 36.5966C46.4741 36.1985 45.8562 36.1624 45.3836 36.2709C44.9656 36.3795 44.6748 36.6509 44.493 36.8862L44.2749 37.1757C44.1295 37.1033 43.9841 37.0309 43.8387 36.9947H43.7478L43.2208 37.1033L43.1481 36.5966C43.1299 36.3976 43.1117 36.1443 43.1662 35.909Z" fill="white"/>
<path fill-rule="evenodd" clip-rule="evenodd" d="M46.1103 41.8442C46.1103 43.129 45.0743 44.1604 43.7839 44.1604C42.5116 44.1604 41.4756 43.129 41.4756 41.8442C41.4756 40.5776 42.5116 39.5461 43.7839 39.5461C45.0743 39.5461 46.1103 40.5776 46.1103 41.8442Z" fill="#FFCC00"/>
<path d="M37.5136 48.7746C37.2591 48.7746 37.041 48.5575 37.041 48.3041C37.041 48.0508 37.2591 47.8336 37.5136 47.8336H47.2192C46.8739 48.1594 46.5104 48.467 46.1105 48.7746H37.5136Z" fill="white"/>
<path d="M28.2267 5.69027V1.61888L27.1907 2.41507L26.5 1.49222L28.3357 0.153183H29.5353V5.69027H28.2267ZM35.7876 1.98078C35.7876 2.30649 35.7331 2.61411 35.624 2.88554C35.4968 3.13887 35.3514 3.41029 35.1696 3.69981L33.8247 5.69027H32.2434L33.6247 3.77219L33.6429 3.7541C33.5702 3.77219 33.5157 3.79029 33.443 3.80838C33.3703 3.80838 33.2976 3.82648 33.2431 3.82648C32.9886 3.82648 32.7705 3.77219 32.5524 3.68172C32.3343 3.60934 32.1344 3.48267 31.9708 3.31982C31.789 3.15696 31.6618 2.97601 31.5709 2.75887C31.4619 2.52364 31.4073 2.2884 31.4073 2.01697C31.4073 1.70936 31.48 1.41984 31.5891 1.16651C31.6981 0.913176 31.8617 0.71413 32.0617 0.533179C32.2616 0.370324 32.4979 0.243659 32.7523 0.153183C33.025 0.062708 33.2976 0.00842285 33.6066 0.00842285C33.9155 0.00842285 34.1882 0.062708 34.4608 0.153183C34.7334 0.243659 34.9515 0.370324 35.1515 0.533179C35.3514 0.71413 35.4968 0.913176 35.624 1.16651C35.7331 1.40174 35.7876 1.67317 35.7876 1.98078ZM34.479 1.96269C34.479 1.72745 34.4063 1.52841 34.2427 1.34746C34.0973 1.16651 33.8792 1.09413 33.6066 1.09413C33.3521 1.09413 33.134 1.16651 32.9704 1.32936C32.8068 1.49222 32.7341 1.70936 32.7341 1.98078C32.7341 2.23411 32.8068 2.43316 32.9704 2.59602C33.134 2.75887 33.3339 2.84935 33.5884 2.84935C33.861 2.84935 34.0609 2.75887 34.2245 2.59602C34.3881 2.43316 34.479 2.23411 34.479 1.96269ZM38.5321 5.69027H37.0054L39.2591 1.27508H36.6237V0.153183H40.6586V1.2027L38.5321 5.69027ZM45.2388 4.60457V5.69027H44.0029V4.60457H41.4038V3.50077L43.6575 0.153183H45.2388V3.53696H46.0021V4.60457H45.2388ZM44.021 1.49222H44.0029L42.6761 3.53696H44.021V1.49222Z" fill="#163A6B"/>
<path d="M36.2603 12.9283H34.6973V55.0898H36.2603V12.9283Z" fill="#163A6B"/>
<path d="M52.6943 32.9165L52.6943 31.3748L18.2644 31.3748L18.2644 32.9165L52.6943 32.9165Z" fill="#163A6B"/>
</g>
<defs>
<clipPath id="kkt-clip0">
<rect width="70.9565" height="68" fill="white"/>
</clipPath>
</defs>
</svg>
